<?xml version="1.0" standalone="no"?>
<!DOCTYPE svg PUBLIC "-//W3C//DTD SVG 1.1//EN" "http://www.w3.org/Graphics/SVG/1.1/DTD/svg11.dtd" >
<!--
2013-9-30: Created.
-->
<svg>
<metadata>
Created by iconfont
</metadata>
<defs>

<font id="iconfont" horiz-adv-x="1024" >
  <font-face
    font-family="iconfont"
    font-weight="500"
    font-stretch="normal"
    units-per-em="1024"
    ascent="896"
    descent="-128"
  />
    <missing-glyph />
    
    <glyph glyph-name="shipin" unicode="&#58961;" d="M724.032 331.392v105.6c0 10.56 3.52 22.72 8.384 27.776l115.584 118.976c37.824 38.912 81.344 49.856 81.344 8.128v-415.424c0-41.664-43.52-30.784-81.344 8.128l-115.584 118.976c-4.864 4.992-8.384 17.216-8.384 27.84zM669.376 214.208a64 64 0 0 0-64-64h-446.72a64 64 0 0 0-64 64V554.24a64 64 0 0 0 64 64h446.72a64 64 0 0 0 64-64v-340.032z"  horiz-adv-x="1024" />

    
    <glyph glyph-name="shipindefuben" unicode="&#59222;" d="M724.032 331.392v105.6c0 10.56 3.52 22.72 8.384 27.776L848 583.744c37.824 38.912 81.344 49.856 81.344 8.128v-415.424c0-41.664-43.52-30.784-81.344 8.128L732.416 303.552c-4.864 4.992-8.384 17.216-8.384 27.84z m-54.656-117.184a64 64 0 0 0-64-64h-446.72a64 64 0 0 0-64 64V554.24a64 64 0 0 0 64 64h446.72a64 64 0 0 0 64-64v-340.032z"  horiz-adv-x="1024" />

    
    <glyph glyph-name="liebiaomoshi_kuai" unicode="&#60542;" d="M96 768h832v-192H96zM96 480h832v-192H96zM96 192h832v-192H96z"  horiz-adv-x="1024" />

    
    <glyph glyph-name="burglar-alarm" unicode="&#58965;" d="M937.472 220.67200000000003A237.568 237.568 0 0 0 828.416 332.79999999999995a1039.36 1039.36 0 0 0-47.616 248.32A231.424 231.424 0 0 1 614.4 753.664a25.088 25.088 0 0 1 0 8.192 102.4 102.4 0 1 1-204.8 0 25.088 25.088 0 0 1 0-8.192A232.448 232.448 0 0 1 242.688 578.56a1024 1024 0 0 0-47.104-245.76 237.568 237.568 0 0 0-108.544-112.128c-60.928-34.816-46.08-125.44-44.032-135.68a38.4 38.4 0 0 1 37.888-31.232H343.04a169.472 169.472 0 0 1 338.432 0h262.656a38.4 38.4 0 0 1 37.888 31.232c1.024 10.24 16.384 100.864-44.544 135.68zM512 815.104a51.2 51.2 0 0 0 51.2-51.2 373.248 373.248 0 0 1-51.2 4.096 372.736 372.736 0 0 1-51.2-4.608 51.2 51.2 0 0 0 51.2 51.712z m0-848.896a92.672 92.672 0 0 0-92.16 87.552h184.32a92.672 92.672 0 0 0-92.16-88.064zM116.736 128a34.304 34.304 0 0 0 7.68 23.552 310.272 310.272 0 0 1 140.288 146.432 1065.984 1065.984 0 0 1 51.2 268.288C321.024 581.6320000000001 345.6 691.2 512 691.2s190.976-111.104 193.024-120.32a1083.392 1083.392 0 0 1 54.272-271.872 310.272 310.272 0 0 1 140.288-146.432 34.816 34.816 0 0 0 7.68-23.552H116.736z"  horiz-adv-x="1024" />

    
    <glyph glyph-name="xitongweihu" unicode="&#58960;" d="M413.4 683.9v-234.2H179.1V683.9h234.3m17 53.7H162.1c-20.3 0-36.7-16.4-36.7-36.7v-268.3c0-20.3 16.4-36.7 36.7-36.7h268.3c20.3 0 36.7 16.4 36.7 36.7V700.9c0 20.2-16.4 36.7-36.7 36.7zM413 275.3v-234.2H178.8V275.3H413m17 53.8H161.8c-20.3 0-36.7-16.4-36.7-36.7v-268.3c0-20.3 16.4-36.7 36.7-36.7H430c20.3 0 36.7 16.4 36.7 36.7V292.4c0 20.2-16.4 36.7-36.7 36.7z m395.7-53.8v-234.2H591.5V275.3h234.2m17 53.8H574.5c-20.3 0-36.7-16.4-36.7-36.7v-268.3c0-20.3 16.4-36.7 36.7-36.7h268.3c20.3 0 36.7 16.4 36.7 36.7V292.4c-0.1 20.2-16.5 36.7-36.8 36.7zM708.6 732.4l165.6-165.6-165.6-165.7L543 566.7l165.6 165.7m0 60.7c-9.4 0-18.8-3.6-26-10.7L493 592.7c-14.3-14.3-14.3-37.6 0-51.9l189.7-189.7c7.2-7.2 16.6-10.7 26-10.7 9.4 0 18.8 3.6 26 10.7l189.7 189.7c14.3 14.3 14.3 37.6 0 51.9L734.5 782.4c-7.1 7.2-16.5 10.7-25.9 10.7z"  horiz-adv-x="1024" />

    
    <glyph glyph-name="bofang4" unicode="&#58966;" d="M295.349 752.71c-22.906 13.361-53.447 26.723-78.262 11.453-19.088-11.453-22.906-30.54-22.906-49.629v-616.547c0-20.997 1.909-40.085 20.997-51.538 22.906-15.271 51.538-3.817 72.534 9.544l505.836 303.502 1.909 1.909c45.811 26.723 45.811 62.992 0 89.714l-500.109 301.593zM323.983 800.429l500.109-301.593c83.988-49.629 80.17-135.526 0-185.154v0l-507.744-305.41c-40.085-22.906-87.805-36.267-131.708-9.544-34.359 22.906-45.811 59.173-45.811 99.259v616.547c0 38.176 13.361 74.443 47.721 97.349 45.811 28.632 95.441 13.361 137.435-11.453z"  horiz-adv-x="1024" />

    
    <glyph glyph-name="shipinvideo161" unicode="&#59097;" d="M1017.856-128c0 0 146.285714 0 146.285714 146.285714L1164.141714 749.714286c0 146.285714-146.285714 146.285714-146.285714 146.285714L146.285714 896c0 0-146.285714 0-146.285714-146.285714l0-731.428571c0-146.285714 146.285714-146.285714 146.285714-146.285714L1017.856-128zM73.142857 19.675429 73.142857 748.397714C73.142857 822.857143 147.090286 822.857143 147.090286 822.857143L1025.462857 822.857143c0 0 73.947429 0 73.947429-74.459429l0-728.722286C1099.410286-54.857143 1025.462857-54.857143 1025.462857-54.857143L147.090286-54.857143C147.090286-54.857143 73.142857-54.857143 73.142857 19.675429zM1249.353143 244.736 1249.353143 155.136 1609.142857-128 1609.142857 896 1249.353143 610.230857 1249.353143 518.582857 1536 733.622857 1536 29.769143Z"  horiz-adv-x="1610" />

    
    <glyph glyph-name="guanbi" unicode="&#59210;" d="M796.077419 143.525161L271.525161 668.077419c-9.249032 9.249032-24.443871 9.249032-33.692903 0-9.249032-9.249032-9.249032-24.443871 0-33.692903l524.552258-524.552258c9.249032-9.249032 24.443871-9.249032 33.692903 0 9.249032 9.249032 9.249032 23.783226 0 33.692903M279.452903 101.904516l523.891613 523.891613c9.249032 9.249032 9.249032 24.443871 0 33.692903-9.249032 9.249032-24.443871 9.249032-33.692903 0l-523.891613-523.891613c-9.249032-9.249032-9.249032-24.443871 0-33.692903 9.249032-9.249032 24.443871-9.249032 33.692903 0"  horiz-adv-x="1024" />

    
    <glyph glyph-name="bofang1" unicode="&#58963;" d="M852.727563 503.552893C956.997809 437.526365 956.941389 330.440483 852.727563 264.44968L281.888889-97.019655C177.618644-163.046186 93.090909-120.054114 93.090909-1.137364L93.090909 769.139937C93.090909 888.120794 177.675064 931.013033 281.888889 865.022231L852.727563 503.552893 852.727563 503.552893Z"  horiz-adv-x="1024" />

    
    <glyph glyph-name="shipinvideo162" unicode="&#59072;" d="M1017.856-128c0 0 146.285714 0 146.285714 146.285714L1164.141714 749.714286c0 146.285714-146.285714 146.285714-146.285714 146.285714L146.285714 896c0 0-146.285714 0-146.285714-146.285714l0-731.428571c0-146.285714 146.285714-146.285714 146.285714-146.285714L1017.856-128zM1249.353143 610.230857 1249.353143 155.136 1609.142857-128 1609.142857 896Z"  horiz-adv-x="1610" />

    
    <glyph glyph-name="real-time-alarm" unicode="&#58959;" d="M914.249252 142.03788599999996l-92.394815 149.05683v204.187438a306.281157 306.281157 0 0 1-216.949153 293.519441 24.502493 24.502493 0 0 1 0 5.615155A93.926221 93.926221 0 0 1 418.073779 793.906281a24.502493 24.502493 0 0 1 0-5.615154 306.281157 306.281157 0 0 1-215.417747-292.498505v-204.187438l-92.905284-149.567298a76.570289 76.570289 0 0 1 65.33998-116.897308H358.859422a153.140578 153.140578 0 0 1 306.281156 0h183.768694a76.570289 76.570289 0 0 1 65.33998 116.897308zM512 837.296112a42.368893 42.368893 0 0 0 41.347956-37.264208 306.281157 306.281157 0 0 1-38.795613 2.552343h-5.104686a306.281157 306.281157 0 0 1-38.795613-2.552343 42.368893 42.368893 0 0 0 41.347956 37.264208z m0-903.529412a102.093719 102.093719 0 0 0-102.093719 91.373878h204.187438a102.093719 102.093719 0 0 0-102.093719-91.373878z m0 167.944167H175.090728l102.093719 167.433699V495.792622a230.221336 230.221336 0 0 0 232.26321 230.731805h5.104686a230.221336 230.221336 0 0 0 230.221336-230.221336v-226.648056l102.093719-167.433699H512z"  horiz-adv-x="1024" />

    
    <glyph glyph-name="xitongguanli" unicode="&#59011;" d="M381.3 808.7h-238C99.7 808.7 64 773 64 729.3v-238c0-43.6 35.7-79.3 79.3-79.3h238c43.6 0 79.3 35.7 79.3 79.3v238c0.1 43.7-35.6 79.4-79.3 79.4zM381.3 332.7h-238C99.7 332.7 64 297 64 253.3v-238c0-43.6 35.7-79.3 79.3-79.3h238c43.6 0 79.3 35.7 79.3 79.3v238c0.1 43.7-35.6 79.4-79.3 79.4zM857.3 332.7h-238c-43.6 0-79.3-35.7-79.3-79.3v-238c0-43.6 35.7-79.3 79.3-79.3h238c43.6 0 79.3 35.7 79.3 79.3v238c0.1 43.6-35.6 79.3-79.3 79.3zM936.8 666.4L794.4 808.8c-30.9 30.9-81.3 30.9-112.2 0L539.8 666.4c-30.9-30.9-30.9-81.3 0-112.2l142.4-142.4c30.9-30.9 81.3-30.9 112.2 0l142.4 142.4c30.9 30.9 30.9 81.4 0 112.2z"  horiz-adv-x="1024" />

    
    <glyph glyph-name="tingneibanqiushexiangji" unicode="&#58886;" d="M512 896C229.232 896 0 666.77 0 384s229.23-512 512-512 512 229.23 512 512S794.77 896 512 896z m0-993.808C245.906-97.808 30.192 117.906 30.192 384S245.906 865.808 512 865.808c266.098 0 481.808-215.712 481.808-481.808 0-266.094-215.71-481.808-481.808-481.808zM206 624h612v-206H206zM512 134c150.186 0 272.536 119.1 277.802 268H234.198c5.268-148.9 127.616-268 277.802-268zM408 230m-24 0a24 24 0 1 1 48 0 24 24 0 1 1-48 0Z"  horiz-adv-x="1024" />

    
    <glyph glyph-name="gun-camera" unicode="&#59259;" d="M803.8 271.8l132-23v-191l-132 42zM635.9 195l207.3 18.3 58.5-13.9-220.5-34.4zM685.1 197.5l8.8 3.2 2.4-23 44.7-2.4-47.4-8.3zM714.8 322.8l-21-208-46-19 21 226zM615.2 319.2l-21-197 53.6-26.4 21 226zM901.6 149.8l-32.1-11.6-52.7-24.7-13-13.7v38.3zM569.3 314.2l67.5-18.4 0.9 35.3zM886.7 547.1c-18.9 88.9-86.6 150-151.5 137.3l-0.1 0.7-494.9-70.2 56.3-369.1 506.4 113.8c65.4 14 102.9 97.9 83.8 187.5zM86.3 661.4c-5.4-1.1-21.4-11.4-22-35.1-0.6-24 1-41 23.3-76.8s50.6-60.1 50.6-60.1l41.9 29.6 40 77.3s-12.9 16.9-46 37-41.8 25.6-60.9 29.1c-15.1 2.8-21.6 0.2-26.9-1zM210.1 607.6s-54.3-45-59.5-58.8-22-49.8-22-49.8 3.1 34.4 16.3 61.1c17.3 35.3 24.5 48 20.7 69.3-4 22 4.3 21.4 4.3 21.4l40.2-43.2zM377.7 483s22.7-96 11.3-105.3c-11.3-9.3 245.5 24.3 372 53.3 72 16.5 126 26.3 126 26.3s4.3 14.3 4.7 44.4c0.2 14-514-18.7-514-18.7zM128.399 408.704c0-0.003 0.001-0.007 0.002-0.011 15.276-102.141 88.101-175.904 162.658-164.753 74.558 11.151 122.615 102.992 107.339 205.133-0.001 0.004-0.001 0.008-0.002 0.012-0 0.003-0.001 0.007-0.002 0.010-15.276 102.141-88.101 175.904-162.658 164.753-74.558-11.151-122.615-102.992-107.339-205.133 0.001-0.004 0.001-0.008 0.002-0.012zM145.893 414.816c0-0 0-0 0-0 12.164-81.331 70.156-140.064 129.529-131.184 59.373 8.88 97.644 82.010 85.48 163.34-0 0-0 0-0 0-0 0-0 0-0 0-12.164 81.331-70.156 140.064-129.529 131.184-59.373-8.88-97.644-82.010-85.48-163.34 0-0 0-0 0-0zM231.4 578.2c-16.9-2.5-32.1-10.3-44.9-21.9 19.7-54 49.6-117.3 89.3-151.4 32.5-27.9 55.3-48.8 70.8-63.5 14.4 29 20.2 66.3 14.4 105.6-12.2 81.3-70.2 140-129.6 131.2zM192.365 423.262c0-0.001 0-0.002 0-0.003 5.767-38.562 33.291-66.406 61.475-62.191 28.184 4.215 46.357 38.893 40.59 77.456-0 0.001-0 0.002-0 0.003-0 0.001-0 0.002-0 0.003-5.767 38.562-33.291 66.406-61.475 62.191-28.184-4.215-46.357-38.893-40.59-77.456 0-0.001 0-0.002 0-0.003zM209.871 425.88c0-0.002 0.001-0.004 0.001-0.007 3.79-25.344 21.874-43.645 40.39-40.875 18.517 2.769 30.454 25.56 26.664 50.904-0 0.002-0.001 0.005-0.001 0.007-0 0.002-0.001 0.004-0.001 0.006-3.79 25.344-21.874 43.645-40.39 40.875-18.517-2.769-30.454-25.56-26.664-50.904 0-0.002 0.001-0.005 0.001-0.007zM267 413c2.3 6.3 3.1 13.8 1.9 21.7-2.9 19.3-16.7 33.2-30.7 31.1-3.1-0.5-5.9-1.6-8.4-3.4 11.2-18.6 23.6-35.7 37.2-49.4zM905.6 635.5c-35.3 60-116.7 74.7-116.7 74.7l-701.1-44.7-7.2-6.7c2.3 1.5 4.3 2.4 5.7 2.6 5.4 1.1 11.9 3.8 26.9 1 19-3.5 27.8-9 60.9-29.1s46-37 46-37l-0.1-0.2c39.9-39.4 76.2-91 137-134.6 66-47.3 137.3-58 293.3-39.3 211.2 25.3 251.3 78.7 268.7 100 17.3 21.3 21.9 53.3-13.4 113.3zM759.8 358.8l-123-27v-36l123 28zM647.8 95.8l66 23 187.9 31v49.6l-248.5-38.2zM635.9 322.2l89 20.5-88-26zM935.8 57.8l24 13.4v184l-24-6.4zM803.8 271.8l132-23 24 6.4-127 22.3zM915.6 613.1c-3.2 6.7-6.9 13.7-11.3 21.2-24.7-13.1-81.8-44.9-174.1-58.1-123.7-17.7-252.3-31.3-252.3-31.3s225 10 320 29c70 14 104.5 31.2 117.7 39.2z"  horiz-adv-x="1024" />

    
    <glyph glyph-name="dome-camera" unicode="&#59260;" d="M111.3 537l5.7-14.6-1.4 17.5zM908.3 539.7l-1.2-16.1 5.6 13.4zM171.3 375.5l-29.5-21.8s8.4-20.3 31.9-31.6c7.1-3.4 1.7 50.3 1.7 50.3l-4.1 3.1zM883.6 356.6s-14.8-22-32.1-26.1c-2.9-0.7-6.1 3.8-6.1 3.8l8.4 43.6 29.8-21.3zM854.4 378.2c0-204-153.3-369.4-342.4-369.4s-342.4 165.4-342.4 369.4 153.3 297.3 342.4 297.3 342.4-93.3 342.4-297.3zM848 446.7c0.6-8.6-18.2-7.4-17.9-16.4 6.4-238.4-118.9-391.9-327.9-411.7-86.9-8.2-177.5 50.5-239.5 106.7 62.3-71.8 151-116.5 249.3-116.5 189.1 0 342.4 165.4 342.4 369.4 0 24.4-2.2 47.2-6.4 68.5zM850.6 431.7l-179 138.6-208.1 50-173-100-120-117.4c-0.5-8-0.8-16.2-0.8-24.6 0-30.9 3.5-61 10.2-89.7 16 38.8-49.8 70.8 94.6 125.3 12.4 4.7 99.8 25.9 99.8 25.9s42 128.8 137.8 123.6c102.8-5.5 131.2-120 131.2-120s153.5-43 180-98.2c13.6-28.4 15.1-50.3 19-64.8 7.9 31.2 12.2 64 12.2 98-0.1 18.5-1.4 36.4-3.9 53.3zM924.3 570.8c0.5-8.9 0.8-17.9 0.8-27 0-67.1-14.9-130.6-41.5-187.2-56.4 38.8-135 68.5-226.2 83.8-11.9 72-72.5 126.8-145.4 126.8-73.3 0-134-55.3-145.6-127.8-91-16-169.2-46.3-224.7-85.8-27.4 57.4-42.8 121.9-42.8 190.2 0 9.1 0.3 18.1 0.8 27 0.5-8.3 1.2-16.5 2.2-24.7 107.2 72.9 251.5 117.5 410.1 117.5s302.9-44.6 410.1-117.4c1 8.1 1.7 16.3 2.2 24.6zM884.2 358.1c6.1 29.4 48.6 123.4 7.2 183.3-15.5 22.4-33.9 29.1-63.5 45-27.5 11.6-168.1 66.8-331.3 61.7-129.8-4-205.3-26-238.1-38.2-112.7-40.6-124.9-58.4-138.1-102.3-15.5-51.7 19.6-137.4 26.6-150.2-1.8-1.2-3.5-2.4-5.2-3.6-27.5 57.2-42.9 121.7-42.9 190 0 8.9 0.3 17.6 0.8 26.4h0.1c0.5-8.1 1.2-16.1 2.2-24 31.6 21.4 66.3 40.4 103.7 56.5l61 18.7 12.6 9.1s145.5 34.5 232.8 30.4 200.9-21.9 265.7-43.5c19.4-6.5 32.1-12 40.4-16.7l12.2-3.3c8.7-4 17.3-8.1 25.7-12.4l69.1-41.5c-0.1-66.4-14.8-129.3-41-185.4zM93.1 624.1c-1.1-12.4-1.7-25-1.7-37.7 0-17 1.1-33.8 3.1-50.3 109.2 71.6 256 115.4 417.6 115.4s308.4-43.8 417.6-115.4c2 16.5 3.1 33.3 3.1 50.3 0 12.7-0.6 25.3-1.7 37.7-109.5 72.1-256.9 116.3-419.1 116.3s-309.6-44.2-418.9-116.3zM930.9 642.9c-51.9 34.2-112.3 62.2-178.9 82.1-1.8-3.3-5.3-5.6-9.4-5.6-5.9 0-10.7 4.8-10.7 10.7v0.6c-68.3 18.4-142.5 28.6-220 28.6s-151.8-10.1-220-28.6v-0.6c0-5.9-4.8-10.7-10.7-10.7-4 0-7.6 2.3-9.4 5.6-66.5-19.9-127-47.8-178.9-82-1.1-12.4-1.7-25-1.7-37.7 0-17 1.1-33.8 3.1-50.3 109.2 71.6 256 115.4 417.6 115.4s308.4-43.8 417.6-115.4c2 16.5 3.1 33.3 3.1 50.3 0 12.6-0.6 25.2-1.7 37.6zM93.1 633.5c-1.1-12.4-1.7-25-1.7-37.7 0-17 1.1-33.8 3.1-50.3 109.2 71.6 256 115.4 417.6 115.4s308.4-43.8 417.6-115.4c2 16.5 3.1 33.3 3.1 50.3 0 12.7-0.6 25.3-1.7 37.7-109.5 72.1-256.9 116.3-419.1 116.3s-309.6-44.2-418.9-116.3zM317.6 258.4c-0-0-0-0-0-0 0-107.364 87.036-194.4 194.4-194.4 107.364 0 194.4 87.036 194.4 194.4 0 0 0 0 0 0 0 107.364-87.036 194.4-194.4 194.4-107.364 0-194.4-87.036-194.4-194.4zM353.3 258.4c-0-87.648 71.052-158.7 158.7-158.7s158.7 71.052 158.7 158.7c0 87.648-71.052 158.7-158.7 158.7-87.648 0-158.7-71.052-158.7-158.7zM512 417.1c-31.6 0-61-9.2-85.8-25.1 37.2-80.6 100.1-205.3 148.1-242.7 9.3-7.2 19-14.2 28.9-20.8 40.8 28.7 67.4 76.2 67.4 129.9 0.1 87.6-71 158.7-158.6 158.7zM422.7 258.4c0-0 0-0 0-0 0-49.319 39.981-89.3 89.3-89.3 49.319 0 89.3 39.981 89.3 89.3 0 0 0 0 0 0 0 49.319-39.981 89.3-89.3 89.3-49.319 0-89.3-39.981-89.3-89.3 0-0 0-0 0-0zM451 258.4c0-33.689 27.311-61 61-61 33.689 0 61 27.311 61 61 0 33.689-27.311 61-61 61-33.689 0-61-27.311-61-61zM512 319.4c-16.3 0-31.1-6.4-42-16.8 19-36.5 39.8-73.1 60.2-102.4 24.8 7.7 42.8 30.9 42.8 58.2 0 33.7-27.4 61-61 61zM130.6 643.3s-4.2-51.8 10.2-55.9c14.4-4 75.2 13.6 75.2 13.6l-104.7-55s-4 33.1-2.8 55c1.2 21.9 1.5 29.4 1.5 29.4l20.6 12.9zM888.5 646.3l25.5-15.9s2.3-41 1.4-51.8c-0.9-10.8-2.7-32.6-2.7-32.6l-51.7 30.8s55.6-2.1 46.2 28.8c-9.3 31-18.7 40.7-18.7 40.7z"  horiz-adv-x="1024" />

    
    <glyph glyph-name="shexiangji" unicode="&#58919;" d="M910.4 160L716.3 306.8c-1.7 0-3.1 1.4-3.1 3v90.8c0 1.7 1.4 3 3.1 3l192.8 144.6c1.8 1.3 4.5 0.2 4.5-2V163c0-1.6-1.4-3-3.2-3zM602.4 128.3H128c-35.2 0-64 28.8-64 64V546c0 35.2 28.8 64 64 64h474.4c35.2 0 64-28.8 64-64v-353.7c0-35.2-28.8-64-64-64zM640.1 116.2H128c-41.9 0-76 34.1-76 76V576c0 41.9 34.1 76 76 76h512.1c41.9 0 76-34.1 76-76v-383.8c0-41.9-34.1-76-76-76zM128 628c-28.7 0-52-23.3-52-52v-383.8c0-28.7 23.3-52 52-52h512.1c28.7 0 52 23.3 52 52V576c0 28.7-23.3 52-52 52H128zM959.3 463.5c-6.6 0-12 5.4-12 12V526c0 6.6 5.4 12 12 12s12-5.4 12-12v-50.5c0-6.6-5.3-12-12-12zM955.3 114.2h-4.1L702.8 308.9c-6.2 2.2-10.7 8.1-10.7 15.1V443.8c0 7 4.5 12.9 10.7 15.1l243.4 189.3c4.7 3.7 10.9 4.3 16.3 1.7 5.3-2.5 8.7-7.8 8.8-13.6V576.5c0-6.6-5.4-12-12-12s-12 5.4-12 12v42.1L716.1 438.8v-109.9l231.2-181.2V423c0 6.6 5.4 12 12 12s12-5.4 12-12v-292.8c0-8.8-7.1-16-16-16z"  horiz-adv-x="1024" />

    
    <glyph glyph-name="tianranqibaojingqi-" unicode="&#58918;" d="M768 120.2H256c-11.8 0-21.3 9.5-21.3 21.3V493.1c0 152.9 124.2 277.3 276.9 277.3 153.3 0 277.7-124.4 277.7-277.3v-351.6c0-11.8-9.5-21.3-21.3-21.3z m-490.7 42.7h469.3V493.1c0 129.4-105.3 234.7-234.7 234.7-129.6 0-234.7-105.3-234.7-234.7v-330.2zM864-2.5H160c-11.8 0-21.3 9.5-21.3 21.3s9.5 21.3 21.3 21.3h704c11.8 0 21.3-9.5 21.3-21.3s-9.5-21.3-21.3-21.3z"  horiz-adv-x="1024" />

    
    <glyph glyph-name="shexiangji1" unicode="&#58927;" d="M1088.18749971 542.203125l265.5351568 132.74999973A35.15625027 35.15625027 0 0 0 1404.59374971 643.52343723v-519.04687446a35.15625027 35.15625027 0 0 0-50.8710932-31.4296875L1088.18749971 225.796875V102.75000026999999a140.62500027 140.62500027 0 0 0-140.62499945-140.62500027H314.75000026a140.62500027 140.62500027 0 0 0-140.62500027 140.62500027V665.24999973a140.62500027 140.62500027 0 0 0 140.62500027 140.62500027h632.8125a140.62500027 140.62500027 0 0 0 140.62499946-140.62500027v-123.04687473z"  horiz-adv-x="1493" />

    
    <glyph glyph-name="bofang" unicode="&#58891;" d="M725.632 68.096c-63.104-42.88-136.832-65.408-213.504-65.408-210.304 0-381.312 171.008-381.312 381.184 0 75.52 22.016 148.608 63.744 211.072 8.576 12.672 4.992 29.952-7.68 38.528-12.672 8.576-29.952 4.992-38.528-7.68-47.872-71.68-73.088-155.392-73.088-241.92 0-240.768 195.968-436.608 436.864-436.608 87.68 0 172.416 25.856 244.736 74.88 12.672 8.576 16 25.856 7.424 38.656-8.704 12.544-25.984 15.872-38.656 7.296zM512 820.864c-93.312 0-182.272-28.928-257.408-83.84-12.416-9.088-15.104-26.496-6.016-38.784 9.088-12.416 26.496-15.104 38.784-6.016 65.536 47.744 143.232 73.088 224.64 73.088 210.176 0 381.184-171.136 381.184-381.312 0-81.408-25.216-159.104-73.088-224.512-9.088-12.416-6.272-29.824 6.016-38.784 4.864-3.712 10.624-5.376 16.384-5.376 8.576 0 17.024 3.968 22.4 11.52 54.912 75.136 83.84 164.096 83.84 257.28C948.864 624.896 753.024 820.864 512 820.864z m-84.864-611.968c4.864 0 9.6 1.152 13.952 3.84l251.904 145.408c8.576 4.864 13.824 14.08 13.824 24.064 0 9.984-5.248 19.072-13.824 24.064L441.216 551.68c-8.704 4.864-19.2 4.864-27.904 0-8.576-4.864-13.824-14.08-13.824-24.064V236.8c0-9.984 5.248-19.072 13.824-24.064 4.224-2.56 9.088-3.84 13.824-3.84z m27.904 270.592l168.576-97.28-168.576-97.28v194.56z"  horiz-adv-x="1024" />

    
    <glyph glyph-name="shipinbofang" unicode="&#59665;" d="M960 704h-28.384c-16.8 0-32.928-6.624-44.928-18.432L800 600.064V640a96 96 0 0 1-96 96H96C43.072 736 0 692.96 0 640v-512a96 96 0 0 1 96-96h608c52.992 0 96 43.008 96 96v39.072l86.688-85.504c12-11.808 28.128-18.432 44.928-18.432H960a64 64 0 0 1 64 64V640a64 64 0 0 1-64 64zM96 96c-17.664 0-32 14.368-32 32V640a32 32 0 0 0 32 32h608c17.632 0 32-14.336 32-32v-512c0-17.632-14.368-32-32-32H96z m864 31.136h-32l-128 128V256l-32 32v192l160 160h32v-512.864z"  horiz-adv-x="1024" />

    
    <glyph glyph-name="caozuo-bofang" unicode="&#58932;" d="M233.43968 716.956208H790.559297c42.98807 0 82.202187-17.588587 110.690008-45.613874 28.29237-28.511357 45.857421-67.945485 45.857421-110.952998v-352.799138c0-43.22957-17.564028-82.417081-45.857421-110.690008-28.487821-28.29237-67.700915-45.856397-110.690008-45.856398H233.43968c-42.986023 0-81.95864 17.564028-110.471021 45.856398-28.511357 28.271904-46.076408 67.459415-46.076408 110.690008V560.387289c0 43.00649 17.564028 82.440617 46.076408 110.952998 28.512381 28.02631 67.483974 45.61592 110.471021 45.615921z m565.758368-58.741869H224.792743c-25.232684 0-48.258097-10.284227-65.389267-27.438933-16.654308-16.654308-26.937512-39.680744-26.937512-64.908312v-363.745444c0-25.457812 10.284227-48.483224 26.937512-65.389267 17.131169-16.905018 40.156582-27.188222 65.389267-27.188222h574.406328c25.232684 0 48.483224 10.283204 65.139579 27.188222 17.154705 16.906042 27.437909 39.931454 27.437909 65.389267v363.744421c0 25.228591-10.283204 48.254004-27.437909 64.908312-16.657378 17.155728-39.907918 27.439956-65.140602 27.439956zM400.75843 213.622588a21.904892 21.904892 0 0 0-21.906939 21.905916V530.371672a21.904892 21.904892 0 0 0 32.859385 18.97005l255.341502-147.421584a21.903869 21.903869 0 0 0 0-37.9401L411.711899 216.558453a21.903869 21.903869 0 0 0-10.953469-2.935865z m21.905916 278.806937v-218.957851l189.623755 109.479437-189.623755 109.478414z"  horiz-adv-x="1024" />

    


  </font>
</defs>
</svg>
